<svg xmlns="http://www.w3.org/2000/svg" xmlns:xlink="http://www.w3.org/1999/xlink" width="22" height="22" viewBox="0 0 22 22">
  <defs>
    <clipPath id="clip-path">
      <rect id="Rectangle_20" data-name="Rectangle 20" width="22" height="22" transform="translate(31 1478)"/>
    </clipPath>
  </defs>
  <g id="Mask_Group_5" data-name="Mask Group 5" transform="translate(-31 -1478)" clip-path="url(#clip-path)">
    <g id="_001-home" data-name="001-home" transform="translate(31 1479.194)">
      <g id="Group_64" data-name="Group 64" transform="translate(0 0)">
        <g id="Group_63" data-name="Group 63">
          <path id="Path_47" data-name="Path 47" d="M21.766,8.506,11.338.87a.571.571,0,0,0-.675,0L.234,8.506a.572.572,0,0,0,.675.922L11,2.04,21.091,9.428a.572.572,0,0,0,.675-.922Z" transform="translate(0 -0.76)" fill="#fff"/>
        </g>
      </g>
      <g id="Group_66" data-name="Group 66" transform="translate(2.426 8.798)">
        <g id="Group_65" data-name="Group 65">
          <path id="Path_48" data-name="Path 48" d="M18.121,6.359a.572.572,0,0,0-.572.572v9.1H12.976V11.062a2.858,2.858,0,0,0-5.717,0v4.967H2.687V6.93a.572.572,0,0,0-1.143,0V16.6a.572.572,0,0,0,.572.572H7.831a.571.571,0,0,0,.569-.527.431.431,0,0,0,0-.045V11.062a1.715,1.715,0,1,1,3.43,0V16.6a.419.419,0,0,0,0,.044.571.571,0,0,0,.569.528h5.716a.572.572,0,0,0,.572-.572V6.93A.572.572,0,0,0,18.121,6.359Z" transform="translate(-1.544 -6.359)" fill="#fff"/>
        </g>
      </g>
    </g>
  </g>
</svg>
