<svg id="gear" xmlns="http://www.w3.org/2000/svg" width="19.745" height="19.745" viewBox="0 0 19.745 19.745">
  <g id="Group_3004" data-name="Group 3004">
    <g id="Group_3003" data-name="Group 3003">
      <g id="Group_3002" data-name="Group 3002">
        <path id="Path_63" data-name="Path 63" d="M19.433,7.581l-1.806-.452a8.355,8.355,0,0,0-.334-.8l.96-1.6a.411.411,0,0,0-.062-.5L15.515,1.553a.411.411,0,0,0-.5-.062l-1.6.96a8.284,8.284,0,0,0-.8-.334L12.163.312a.411.411,0,0,0-.4-.312H7.98a.411.411,0,0,0-.4.312L7.129,2.118a8.3,8.3,0,0,0-.8.334l-1.6-.96a.412.412,0,0,0-.5.062L1.554,4.23a.411.411,0,0,0-.062.5l.96,1.6a8.332,8.332,0,0,0-.334.8L.312,7.581A.411.411,0,0,0,0,7.98v3.784a.411.411,0,0,0,.312.4l1.806.452a8.356,8.356,0,0,0,.334.8l-.96,1.6a.411.411,0,0,0,.062.5L4.23,18.191a.413.413,0,0,0,.5.062l1.6-.96a8.332,8.332,0,0,0,.8.334l.452,1.806a.411.411,0,0,0,.4.312h3.784a.411.411,0,0,0,.4-.312l.452-1.806a8.355,8.355,0,0,0,.8-.334l1.6.96a.411.411,0,0,0,.5-.062l2.676-2.676a.411.411,0,0,0,.062-.5l-.96-1.6a8.332,8.332,0,0,0,.334-.8l1.806-.452a.411.411,0,0,0,.312-.4V7.98A.411.411,0,0,0,19.433,7.581Zm-.511,3.862-1.712.428a.41.41,0,0,0-.292.272,7.43,7.43,0,0,1-.46,1.1.411.411,0,0,0,.013.4l.91,1.517L15.16,17.382l-1.517-.91a.414.414,0,0,0-.4-.013,7.451,7.451,0,0,1-1.1.46.41.41,0,0,0-.272.292l-.428,1.712H8.3L7.873,17.21a.41.41,0,0,0-.272-.292,7.451,7.451,0,0,1-1.1-.46.41.41,0,0,0-.4.013l-1.517.91L2.362,15.16l.91-1.517a.411.411,0,0,0,.013-.4,7.43,7.43,0,0,1-.46-1.1.41.41,0,0,0-.292-.272L.823,11.443V8.3l1.712-.428A.41.41,0,0,0,2.826,7.6a7.43,7.43,0,0,1,.46-1.1.411.411,0,0,0-.013-.4l-.91-1.517L4.584,2.362,6.1,3.273a.408.408,0,0,0,.4.013,7.43,7.43,0,0,1,1.1-.46.41.41,0,0,0,.272-.292L8.3.823h3.142l.428,1.712a.41.41,0,0,0,.272.292,7.43,7.43,0,0,1,1.1.46.412.412,0,0,0,.4-.013l1.517-.911,2.222,2.222L16.472,6.1a.411.411,0,0,0-.013.4,7.43,7.43,0,0,1,.46,1.1.41.41,0,0,0,.292.272l1.712.428v3.142Z" fill="#fff"/>
        <path id="Path_64" data-name="Path 64" d="M132.936,128a4.936,4.936,0,1,0,4.936,4.936A4.942,4.942,0,0,0,132.936,128Zm0,9.05a4.113,4.113,0,1,1,4.113-4.113A4.118,4.118,0,0,1,132.936,137.05Z" transform="translate(-123.064 -123.064)" fill="#fff"/>
      </g>
    </g>
  </g>
</svg>
